<?xml version="1.0" encoding="UTF-8" standalone="no"?>
<!DOCTYPE svg PUBLIC "-//W3C//DTD SVG 20010904//EN"
              "http://www.w3.org/TR/2001/REC-SVG-20010904/DTD/svg10.dtd">

<svg xmlns="http://www.w3.org/2000/svg"
     width="67.7335mm" height="67.7335mm"
     viewBox="0 0 800 800">
  <path id="Selection"
        fill="white" stroke="none" stroke-width="1"
        d="M 100.00,300.00
           C 100.00,300.00 150.00,300.00 150.00,300.00
             150.00,300.00 150.00,145.00 150.00,145.00
             150.00,145.00 300.00,145.00 300.00,145.00
             300.00,145.00 300.00,100.00 300.00,100.00
             300.00,100.00 188.00,100.00 188.00,100.00
             163.48,100.00 143.19,97.44 123.00,115.18
             109.20,127.31 100.03,144.42 100.00,163.00
             100.00,163.00 100.00,192.00 100.00,192.00
             100.00,192.00 100.00,300.00 100.00,300.00 Z
           M 500.00,100.00
           C 500.00,100.00 500.00,145.00 500.00,145.00
             500.00,145.00 653.00,145.00 653.00,145.00
             653.00,145.00 653.00,300.00 653.00,300.00
             653.00,300.00 700.00,300.00 700.00,300.00
             700.00,300.00 700.00,189.00 700.00,189.00
             700.00,162.38 702.90,142.47 682.91,121.00
             671.10,108.32 654.46,100.03 637.00,100.00
             637.00,100.00 609.00,100.00 609.00,100.00
             609.00,100.00 500.00,100.00 500.00,100.00 Z
           M 329.00,429.00
           C 339.97,429.00 341.85,429.92 342.00,422.00
             342.00,422.00 342.00,380.00 342.00,380.00
             342.00,380.00 498.00,380.00 498.00,380.00
             498.00,380.00 498.00,553.00 498.00,553.00
             498.00,553.00 400.00,553.00 400.00,553.00
             400.00,553.00 400.00,558.00 400.00,558.00
             400.01,559.82 399.85,562.92 401.02,564.40
             403.01,566.92 415.52,566.00 419.00,566.00
             419.00,566.00 477.00,566.00 477.00,566.00
             477.00,566.00 553.00,566.00 553.00,566.00
             556.65,565.99 560.84,566.33 563.69,563.57
             566.17,561.16 565.98,558.18 566.00,555.00
             566.00,555.00 566.00,529.00 566.00,529.00
             566.00,529.00 566.00,410.00 566.00,410.00
             566.00,410.00 566.00,377.00 566.00,377.00
             565.98,374.44 566.16,371.40 564.40,369.31
             562.13,366.61 558.18,367.01 555.00,367.00
             555.00,367.00 555.00,261.00 555.00,261.00
             554.99,256.68 555.13,254.15 553.53,250.00
             549.84,240.40 543.05,236.05 533.00,236.00
             524.40,235.96 521.39,235.55 513.00,238.54
             506.41,240.89 502.79,243.45 497.00,247.00
             493.40,239.41 487.19,236.11 479.00,236.15
             479.00,236.15 467.00,236.15 467.00,236.15
             453.81,238.20 440.85,246.50 432.90,257.00
             430.06,260.74 427.69,264.64 425.92,269.00
             424.44,272.65 423.96,276.40 419.90,278.13
             412.69,281.20 411.76,273.61 400.00,274.04
             391.19,274.36 390.31,278.68 385.00,278.81
             374.42,279.05 371.39,274.37 364.00,274.04
             353.63,273.57 352.25,277.59 348.42,278.66
             344.99,279.62 340.17,276.14 332.00,280.44
             325.97,283.61 322.19,290.21 322.41,297.00
             322.17,300.05 323.26,302.31 322.41,304.58
             321.73,307.86 318.39,309.29 318.04,317.00
             317.70,324.48 319.61,325.91 319.79,329.00
             319.96,332.17 318.29,333.53 318.04,339.00
             317.70,346.49 319.61,347.91 319.79,351.00
             319.96,354.18 318.28,355.53 318.04,361.00
             317.81,366.04 318.48,369.70 321.79,373.70
             324.15,376.56 327.18,378.01 328.40,381.09
             329.12,382.90 329.00,386.01 329.00,388.00
             329.00,388.00 329.00,429.00 329.00,429.00 Z
           M 477.16,367.00
           C 477.16,367.00 435.00,367.00 435.00,367.00
             435.00,367.00 435.00,358.00 435.00,358.00
             444.36,358.00 455.55,359.89 462.81,352.79
             475.24,340.65 465.68,323.23 449.00,323.00
             449.00,323.00 435.00,323.00 435.00,323.00
             435.00,323.00 435.00,314.00 435.00,314.00
             441.47,314.00 453.59,315.00 459.00,311.91
             470.93,305.10 471.66,289.42 459.99,281.99
             453.59,277.92 444.38,279.00 437.00,279.00
             439.72,264.52 453.09,253.28 467.00,249.90
             472.99,248.44 483.83,247.54 486.21,255.02
             487.43,258.84 484.19,262.77 482.49,266.00
             480.19,270.36 477.09,279.10 477.06,284.00
             477.02,290.99 481.45,292.15 481.95,296.00
             482.34,298.99 479.48,301.27 478.17,304.00
             476.79,306.88 477.01,309.89 477.21,313.00
             477.21,313.00 477.21,331.00 477.21,331.00
             478.54,335.12 481.73,337.11 481.98,340.00
             482.27,343.50 478.41,345.54 477.16,350.00
             477.16,350.00 477.16,367.00 477.16,367.00 Z
           M 542.00,367.00
           C 542.00,367.00 489.00,367.00 489.00,367.00
             489.00,367.00 489.00,358.00 489.00,358.00
             498.49,358.00 509.50,359.96 516.96,352.89
             528.53,341.92 521.65,327.16 510.00,323.65
             507.71,322.96 505.36,323.01 503.00,323.00
             503.00,323.00 489.00,323.00 489.00,323.00
             489.00,323.00 489.00,314.00 489.00,314.00
             494.83,314.00 507.13,314.81 512.00,312.59
             525.64,306.35 527.23,289.52 513.00,281.23
             507.46,278.00 497.47,279.00 491.00,279.00
             496.43,265.43 503.60,255.86 518.00,250.90
             524.60,248.63 536.60,246.64 540.55,254.04
             542.19,257.12 541.99,260.63 542.00,264.00
             542.00,264.00 542.00,367.00 542.00,367.00 Z
           M 363.00,287.00
           C 362.01,289.96 360.42,293.93 360.48,297.00
             360.54,299.73 361.85,302.37 361.24,305.00
             360.64,307.63 358.48,309.52 357.14,313.00
             354.80,319.10 356.52,323.88 360.00,329.00
             355.48,337.81 354.06,342.28 360.00,351.00
             356.23,358.35 356.02,358.76 356.00,366.94
             356.00,366.94 342.00,366.94 342.00,366.94
             342.00,366.94 337.02,366.94 337.02,366.94
             333.30,366.30 329.25,363.32 332.61,359.58
             334.05,357.97 342.27,355.79 341.04,350.04
             339.85,344.48 329.78,345.26 331.71,339.13
             333.01,334.97 339.46,336.56 340.92,330.96
             342.86,323.53 333.06,323.75 331.66,319.79
             329.52,313.80 339.69,314.64 341.05,308.96
             342.43,303.18 333.39,299.34 336.79,294.23
             341.32,287.43 347.28,298.41 352.96,297.05
             359.01,295.60 355.70,289.42 363.00,287.00 Z
           M 422.00,316.00
           C 413.21,309.72 415.00,307.83 407.00,313.00
             407.00,313.00 407.00,301.00 407.00,301.00
             395.03,301.00 394.01,300.35 394.00,313.00
             392.46,312.01 389.84,309.97 388.00,310.03
             384.92,310.13 380.55,314.85 381.34,318.00
             382.07,320.95 389.44,327.01 391.69,330.00
             394.34,333.54 393.98,335.84 394.00,340.00
             392.70,339.22 390.50,337.68 389.00,337.58
             385.97,337.36 381.21,341.92 381.62,345.00
             382.00,347.85 388.76,353.52 390.85,356.00
             394.33,360.11 393.98,361.94 394.00,366.92
             394.00,366.92 380.00,366.92 380.00,366.92
             380.00,366.92 375.00,366.92 375.00,366.92
             371.54,366.13 367.69,363.08 370.76,359.58
             372.37,357.74 381.01,356.37 379.29,350.02
             377.94,345.01 371.60,345.13 370.17,341.78
             367.84,336.33 377.69,336.58 379.34,330.98
             381.37,324.11 371.67,323.44 370.17,319.87
             367.89,314.45 377.77,314.67 379.29,308.98
             380.45,304.68 375.62,301.56 374.65,298.00
             373.71,294.52 376.40,291.25 380.00,291.96
             382.76,292.51 385.48,295.78 388.00,296.72
             389.42,297.26 390.53,297.32 391.94,296.72
             396.61,294.74 396.63,286.39 401.87,287.74
             405.68,288.73 405.56,295.91 411.02,297.04
             416.33,298.14 421.72,287.53 426.36,294.16
             429.38,298.48 424.06,301.87 422.59,306.00
             421.77,308.32 422.00,313.36 422.00,316.00 Z
           M 441.00,301.00
           C 441.00,301.00 441.00,292.00 441.00,292.00
             444.07,292.00 450.15,291.66 452.69,293.31
             455.65,295.25 454.97,299.04 451.85,300.40
             449.91,301.25 443.43,301.00 441.00,301.00 Z
           M 495.00,301.00
           C 495.00,301.00 495.00,292.00 495.00,292.00
             498.15,292.00 504.23,291.60 506.85,293.17
             509.51,294.77 510.32,298.04 507.57,299.98
             505.45,301.46 497.82,301.00 495.00,301.00 Z
           M 422.00,318.00
           C 422.00,321.04 421.70,328.49 422.59,331.00
             423.68,334.05 426.45,336.32 427.16,339.00
             428.34,343.47 424.03,345.95 422.59,350.00
             421.63,352.71 422.00,363.47 422.00,367.00
             422.00,367.00 407.00,367.00 407.00,367.00
             407.10,359.10 408.47,358.58 414.00,353.00
             415.73,351.25 420.06,347.40 420.38,345.00
             420.78,341.95 416.02,337.30 413.00,337.60
             411.39,337.77 408.43,340.05 407.00,341.00
             407.00,338.73 406.84,335.07 407.60,333.00
             409.18,328.71 418.15,320.76 422.00,318.00 Z
           M 441.00,345.00
           C 441.00,345.00 441.00,336.00 441.00,336.00
             443.43,336.00 449.91,335.75 451.85,336.60
             455.02,337.98 455.61,341.86 452.69,343.83
             450.33,345.41 443.95,345.00 441.00,345.00 Z
           M 495.00,345.00
           C 495.00,345.00 495.00,336.00 495.00,336.00
             497.72,336.00 504.57,335.71 506.77,336.74
             510.23,338.36 510.29,342.50 506.77,344.13
             504.29,345.28 497.93,345.00 495.00,345.00 Z
           M 314.00,553.00
           C 314.00,553.00 249.00,553.00 249.00,553.00
             249.00,553.00 249.00,478.00 249.00,478.00
             249.00,475.91 248.88,472.94 249.60,471.00
             251.84,464.92 263.64,454.30 271.00,455.23
             277.79,456.08 282.12,462.25 288.00,465.09
             301.82,471.77 310.66,466.78 323.00,461.00
             323.59,468.11 325.93,467.00 336.00,467.00
             336.00,455.32 336.53,448.21 329.43,438.00
             324.06,430.28 315.30,425.65 312.40,417.00
             310.92,412.58 313.10,411.18 313.89,407.00
             313.89,407.00 313.89,389.00 313.89,389.00
             314.00,386.24 314.35,381.82 312.26,379.74
             310.18,377.65 305.76,378.00 303.00,378.00
             303.00,378.00 267.00,378.00 267.00,378.00
             255.90,378.16 257.96,382.39 258.00,402.00
             258.02,411.05 258.90,407.78 259.91,413.00
             261.37,420.56 250.85,428.43 246.44,433.17
             238.41,441.80 236.02,449.46 236.00,461.00
             236.00,461.00 236.00,554.00 236.00,554.00
             236.01,557.76 235.48,562.46 239.23,564.69
             242.52,566.65 254.65,566.00 259.00,566.00
             259.00,566.00 305.00,566.00 305.00,566.00
             314.87,565.98 314.00,565.34 314.00,553.00 Z
           M 553.00,380.00
           C 553.00,380.00 553.00,543.00 553.00,543.00
             546.37,538.25 538.16,531.71 538.00,523.00
             538.00,523.00 538.00,494.00 538.00,494.00
             538.00,494.00 538.00,389.00 538.00,389.00
             538.00,389.00 526.00,389.00 526.00,389.00
             526.00,389.00 526.00,494.00 526.00,494.00
             526.00,494.00 526.00,517.00 526.00,517.00
             526.00,519.71 526.25,525.69 525.40,528.00
             523.82,532.29 514.85,540.24 511.00,543.00
             511.00,543.00 511.00,380.00 511.00,380.00
             511.00,380.00 553.00,380.00 553.00,380.00 Z
           M 302.00,391.00
           C 302.00,391.00 302.00,400.00 302.00,400.00
             302.00,400.00 270.00,400.00 270.00,400.00
             270.00,400.00 270.00,391.00 270.00,391.00
             270.00,391.00 302.00,391.00 302.00,391.00 Z
           M 319.00,448.00
           C 314.08,450.43 308.48,454.10 303.00,454.66
             292.97,455.69 288.95,447.90 281.00,444.47
             269.97,439.70 265.45,442.62 255.00,445.00
             258.22,438.73 264.96,435.78 269.68,427.00
             271.27,424.02 274.25,414.13 275.72,412.99
             277.68,411.48 288.08,411.95 291.00,412.00
             292.64,412.03 294.91,411.93 296.28,412.99
             297.96,414.30 298.94,418.89 299.70,421.00
             301.28,425.41 303.33,429.38 306.33,433.00
             311.13,438.82 316.17,440.85 319.00,448.00 Z
           M 255.00,445.00
           C 255.00,445.00 255.00,446.00 255.00,446.00
             255.00,446.00 254.00,445.00 254.00,445.00
             254.00,445.00 255.00,445.00 255.00,445.00 Z
           M 350.00,481.00
           C 343.44,477.94 340.61,475.66 333.00,476.04
             321.23,476.64 315.41,484.49 312.43,495.00
             307.22,513.37 310.74,523.69 316.51,541.00
             321.00,554.47 323.36,566.94 341.00,565.91
             344.00,565.73 347.31,565.07 350.00,563.72
             352.12,562.65 354.59,560.45 357.00,560.45
             359.34,560.44 362.65,563.02 365.00,564.04
             368.37,565.49 372.34,566.13 376.00,565.91
             390.65,565.00 392.78,555.66 396.67,544.00
             401.31,530.07 404.17,524.10 404.00,509.00
             403.79,491.04 393.53,469.69 372.00,477.39
             368.04,478.80 366.17,480.35 363.00,483.00
             363.33,476.32 365.72,469.47 369.63,464.00
             371.85,460.90 377.37,456.72 376.84,453.00
             376.62,451.49 375.07,449.24 374.10,448.07
             369.46,442.51 365.93,446.85 362.17,451.00
             354.73,459.24 350.24,469.89 350.00,481.00 Z
           M 334.00,489.53
           C 343.08,490.34 343.78,498.51 356.00,498.96
             360.89,499.14 364.92,498.14 369.00,495.36
             371.88,493.40 374.45,490.37 378.00,489.66
             388.16,487.64 390.32,503.02 390.82,510.00
             391.40,518.18 386.96,531.13 384.33,539.00
             383.47,541.59 381.62,547.85 380.16,549.77
             373.46,558.61 365.84,544.91 355.00,546.51
             347.66,547.58 344.35,553.08 339.00,552.67
             332.62,552.18 331.35,543.03 329.67,538.00
             324.92,523.82 322.46,519.54 324.08,504.00
             324.78,497.23 326.75,491.16 334.00,489.53 Z
           M 100.00,500.00
           C 100.00,500.00 100.00,611.00 100.00,611.00
             100.00,637.62 97.10,657.53 117.09,679.00
             128.90,691.68 145.54,699.97 163.00,700.00
             163.00,700.00 191.00,700.00 191.00,700.00
             191.00,700.00 300.00,700.00 300.00,700.00
             300.00,700.00 300.00,653.00 300.00,653.00
             300.00,653.00 150.00,653.00 150.00,653.00
             150.00,653.00 150.00,500.00 150.00,500.00
             150.00,500.00 100.00,500.00 100.00,500.00 Z
           M 653.00,500.00
           C 653.00,500.00 653.00,653.00 653.00,653.00
             653.00,653.00 500.00,653.00 500.00,653.00
             500.00,653.00 500.00,700.00 500.00,700.00
             500.00,700.00 611.00,700.00 611.00,700.00
             637.62,700.00 657.53,702.90 679.00,682.91
             691.68,671.10 699.97,654.46 700.00,637.00
             700.00,637.00 700.00,609.00 700.00,609.00
             700.00,609.00 700.00,500.00 700.00,500.00
             700.00,500.00 653.00,500.00 653.00,500.00 Z
           M 543.00,553.00
           C 543.00,553.00 521.00,553.00 521.00,553.00
             522.97,550.25 528.42,543.20 532.00,543.20
             535.58,543.20 541.03,550.25 543.00,553.00 Z" />
</svg>
