<?xml version="1.0" encoding="UTF-8" standalone="no"?>
<!DOCTYPE svg PUBLIC "-//W3C//DTD SVG 20010904//EN"
              "http://www.w3.org/TR/2001/REC-SVG-20010904/DTD/svg10.dtd">

<svg xmlns="http://www.w3.org/2000/svg"
     width="1.66667in" height="1in"
     viewBox="0 0 500 300">
  <path id="BoxLabelPhone"
        fill="none" stroke="black" stroke-width="2"
        d="M 303.52,159.95
           C 303.52,159.95 348.00,154.33 348.00,154.33
             348.00,154.33 303.52,159.95 303.52,159.95 Z
           M 306.43,175.00
           C 306.43,175.00 327.71,171.52 327.71,171.52M 304.91,167.70
           C 304.91,167.70 348.83,161.30 348.83,161.30M 447.68,272.73
           C 436.84,266.09 428.52,262.17 421.68,260.55
             403.09,259.17 395.98,254.00 379.11,254.27
             379.11,254.27 381.04,266.53 373.65,271.55
             373.65,271.55 316.62,298.88 316.62,298.88
             307.75,299.62 298.12,300.06 294.94,288.31
             294.94,288.31 285.64,232.91 285.64,232.91
             289.25,230.33 289.95,227.30 289.09,223.64
             289.08,219.17 286.89,215.61 285.09,214.18
             290.50,211.48 291.80,208.86 291.82,203.64
             292.92,197.61 291.81,195.06 289.09,192.73
             286.97,189.67 283.94,188.38 279.82,188.00
             284.53,185.52 284.92,181.19 284.55,178.00
             283.45,166.97 280.25,165.00 273.64,162.18
             276.89,158.19 276.72,155.97 276.00,152.00
             275.76,142.07 273.44,140.16 269.27,135.64
             269.27,135.64 260.55,72.00 260.55,72.00
             259.26,58.52 262.00,54.17 274.73,53.09
             274.73,53.09 338.36,55.45 338.36,55.45
             347.12,56.09 348.69,59.62 350.18,66.91
             351.41,65.31 352.91,66.18 352.91,66.18
             367.03,88.25 363.81,81.59 374.03,90.41
             374.03,90.41 396.91,112.55 396.91,112.55
             396.91,112.55 422.81,128.94 422.81,128.94
             434.09,164.09 434.64,156.18 447.82,180.55
             447.82,180.55 447.68,272.73 447.68,272.73 Z
           M 359.22,125.47
           C 358.29,119.58 357.44,113.09 357.44,113.09
             357.44,113.09 361.23,116.86 364.81,120.62
             368.08,124.05 371.16,127.50 371.16,127.50
             371.16,127.50 373.15,130.43 374.59,133.22
             375.85,135.64 376.53,138.28 376.53,138.28
             376.53,138.28 372.43,137.17 368.75,136.28
             364.88,135.35 360.91,135.09 360.91,135.09
             360.91,135.09 360.02,130.52 359.22,125.47 Z
           M 269.24,135.67
           C 264.60,137.02 263.13,138.02 260.11,142.91
             259.13,146.51 259.36,157.65 259.36,159.93
             260.02,161.42 259.93,161.52 260.87,162.60
             261.64,163.50 262.98,164.07 262.98,164.07
             262.98,164.07 260.47,165.60 258.96,167.82
             258.36,169.09 258.52,175.02 258.60,177.22
             259.33,180.56 259.43,180.17 260.67,181.82
             261.76,183.29 263.40,184.53 263.40,184.53
             263.40,184.53 261.22,186.11 259.13,189.02
             257.80,191.16 256.89,197.67 258.67,201.80
             261.31,204.16 273.67,213.27 273.82,213.27
             274.00,213.27 271.58,214.67 270.07,217.16
             270.07,217.16 269.00,220.04 269.38,224.22
             270.16,227.96 271.13,229.42 271.13,229.42
             271.13,229.42 273.09,233.73 279.82,235.09
             279.82,235.09 281.42,235.16 283.38,234.67
             284.73,233.89 285.67,232.89 285.67,232.89M 173.19,147.62
           C 173.19,147.62 217.67,142.00 217.67,142.00
             217.67,142.00 173.19,147.62 173.19,147.62 Z
           M 172.94,163.12
           C 172.94,163.12 197.38,159.19 197.38,159.19M 173.06,155.50
           C 173.06,155.50 217.69,149.19 217.69,149.19M 139.00,198.67
           C 139.00,198.67 119.00,21.00 119.00,21.00
             119.00,21.00 160.33,21.33 160.33,21.33
             160.33,21.33 221.67,18.00 221.67,18.00
             221.67,18.00 223.00,246.67 223.00,246.67
             223.00,246.67 174.33,262.00 174.33,262.00
             174.33,262.00 139.09,198.64 139.09,198.64
             139.09,198.64 168.67,192.33 168.67,192.33
             168.67,192.33 223.33,247.00 223.33,247.00M 160.00,21.33
           C 160.00,21.33 168.67,192.33 168.67,192.33M 222.00,18.33
           C 222.00,18.00 162.67,16.33 162.67,16.33
             162.67,16.33 118.33,21.33 118.67,21.33M 162.67,16.67
           C 162.67,16.67 174.67,260.67 174.67,262.00M 350.18,66.91
           C 350.18,66.91 379.11,254.28 379.11,254.28" />
</svg>
