<?xml version="1.0" encoding="UTF-8" standalone="no"?>
<!DOCTYPE svg PUBLIC "-//W3C//DTD SVG 20010904//EN"
              "http://www.w3.org/TR/2001/REC-SVG-20010904/DTD/svg10.dtd">

<svg xmlns="http://www.w3.org/2000/svg"
     width="1.66667in" height="1in"
     viewBox="0 0 500 300">
  <path id="Selection"
        fill="none" stroke="black" stroke-width="2"
        d="M 204.00,119.00
           C 204.00,119.00 204.00,175.00 204.00,175.00
             204.00,175.00 287.00,175.00 287.00,175.00
             287.00,175.00 287.00,119.00 287.00,119.00
             287.00,119.00 204.00,119.00 204.00,119.00 Z
           M 302.09,30.74
           C 306.25,34.32 306.91,41.64 306.91,41.64
             306.91,41.64 304.81,266.56 304.81,266.56
             304.81,266.56 304.19,273.15 300.70,277.17
             297.52,280.82 291.44,281.94 291.44,281.94
             291.44,281.94 197.62,281.44 197.62,281.44
             197.62,281.44 191.33,280.36 187.74,276.74
             184.30,273.27 183.56,267.25 183.56,267.25
             183.56,267.25 184.13,42.04 184.13,42.04
             184.13,42.04 184.52,33.52 189.00,29.43
             193.37,25.45 201.83,25.91 201.83,25.91
             201.83,25.91 288.74,26.04 288.74,26.04
             288.74,26.04 297.22,26.57 302.09,30.74 Z
           M 210.50,129.75
           C 210.50,129.75 277.45,129.73 277.45,129.73M 210.36,146.45
           C 210.36,146.45 277.09,146.36 277.09,146.36M 210.75,161.75
           C 210.75,161.75 245.50,161.50 245.50,161.50" />
</svg>
